<svg xmlns="http://www.w3.org/2000/svg" width="200" height="130" viewBox="0 0 200 130"><defs><linearGradient id="tank" x2=".2" y2="1"><stop stop-color="#bac5ed"/><stop offset="1" stop-color="#7685ba"/></linearGradient><linearGradient id="metal" x2="0" y2="1"><stop stop-color="#e9efda"/><stop offset="1" stop-color="#9eaeb1"/></linearGradient></defs><ellipse cx="99" cy="113" rx="64" ry="7" fill="#263e3420"/><path d="M54 94Q20 109 21 72Q19 43 53 45" fill="none" stroke="#3a5951" stroke-width="14"/><path d="M53 94Q27 101 27 74Q25 50 54 51" fill="none" stroke="#8fa69a" stroke-width="5"/><path d="M86 73L115 75L107 110Q92 116 85 106Z" fill="#3d5a50"/><path d="M96 82L108 85L102 104L95 105Z" fill="#769085"/><rect x="101" y="48" width="51" height="34" rx="7" fill="url(#metal)" stroke="#4f6c61" stroke-width="2"/><rect x="135" y="46" width="33" height="36" rx="10" fill="#d8dff3"/><rect x="154" y="41" width="19" height="46" rx="7" fill="#6b7caa"/><circle cx="170" cy="54" r="6" fill="#def5f2"/><circle cx="176" cy="70" r="9" fill="#cae7ee"/><circle cx="183" cy="49" r="4" fill="#f4ffff"/><rect x="47" y="25" width="67" height="70" rx="20" fill="url(#tank)" stroke="#496252" stroke-width="3"/><path d="M58 41Q69 30 97 37" fill="none" stroke="#ffffff91" stroke-width="5" stroke-linecap="round"/><rect x="56" y="73" width="50" height="13" rx="6" fill="#273f4640"/><rect x="57" y="24" width="46" height="10" rx="5" fill="#e9e6ce" stroke="#496252" stroke-width="2"/><rect x="70" y="15" width="22" height="13" rx="4" fill="#63776c"/><circle cx="81" cy="56" r="16" fill="#edf0d6" stroke="#657965" stroke-width="2"/><circle cx="81" cy="56" r="11" fill="#405e54"/><path d="M81 47V56L88 59" fill="none" stroke="#bac5ed" stroke-width="3" stroke-linecap="round"/><circle cx="103" cy="66" r="3" fill="#f7e8b6"/></svg>